<svg id="Layer_2" data-name="Layer 2" xmlns="http://www.w3.org/2000/svg" viewBox="0 0 587.55 100.96">
    <defs>
        <style>
            .cls-1{stroke-width:0; fill: #e0e0e0;}
        </style>
    </defs>
    <g id="Layer_1-2" data-name="Layer 1">
        <path class="cls-1" d="M28.78 82.63c-5.88 0-10.95-.77-15.2-2.32-4.26-1.55-7.54-3.85-9.86-6.91C1.4 70.34.16 66.57.01 62.09c0-.62.31-.93.93-.93h15.09c.62 0 .93.31.93.93.19 3.4 1.38 5.88 3.57 7.43 2.19 1.55 5.33 2.32 9.43 2.32 3.44 0 6.06-.64 7.86-1.92 1.8-1.28 2.7-3.08 2.7-5.4 0-1.62-.71-2.86-2.12-3.71-1.41-.85-3.28-1.5-5.6-1.94-2.32-.44-4.87-.86-7.66-1.25s-5.57-.91-8.36-1.57c-2.79-.66-5.34-1.62-7.66-2.9a15.176 15.176 0 0 1-5.6-5.28c-1.41-2.24-2.12-5.16-2.12-8.76 0-6.23 2.34-10.96 7.02-14.19 4.68-3.23 11.04-4.85 19.09-4.85 5.26 0 9.87.7 13.84 2.09 3.96 1.39 7.12 3.48 9.46 6.27 2.34 2.79 3.68 6.29 4.03 10.5.08.66-.23.99-.93.99H39.52c-.54 0-.87-.29-.99-.87-.31-1.74-.89-3.24-1.74-4.5-.85-1.26-2.05-2.22-3.6-2.9-1.55-.68-3.52-1.02-5.92-1.02-2.82 0-5.08.56-6.76 1.68-1.68 1.12-2.52 2.96-2.52 5.51 0 1.62.71 2.85 2.12 3.68 1.41.83 3.28 1.45 5.6 1.86 2.32.41 4.87.78 7.66 1.13s5.57.84 8.36 1.48 5.34 1.6 7.66 2.87c2.32 1.28 4.19 3.05 5.6 5.31 1.41 2.26 2.12 5.21 2.12 8.85 0 4.18-1.22 7.73-3.66 10.65-2.44 2.92-5.78 5.15-10.04 6.67-4.26 1.53-9.13 2.29-14.62 2.29ZM76.36 81.81 52.4 22.57c-.27-.73-.02-1.1.75-1.1h17.64c.54 0 .91.25 1.1.75l13.06 37.54 10.79-37.54c.15-.5.5-.75 1.04-.75h15.72c.73 0 .99.35.75 1.04L86.56 100.2c-.19.5-.54.75-1.04.75H70.84c-.74 0-.99-.35-.75-1.04l6.27-18.1ZM131.72 80.31c0 .62-.31.93-.93.93h-16.01c-.62 0-.93-.31-.93-.93l.23-27.74V22.4c0-.62.31-.93.93-.93h14.97c.58 0 .87.31.87.93l-.29 6.61c1.35-1.74 3-3.28 4.93-4.61 1.93-1.33 4.11-2.39 6.53-3.16s5.02-1.16 7.8-1.16c6.34 0 11.41 2.04 15.2 6.12 3.79 4.08 5.69 9.78 5.69 17.09v12.53l.23 24.49c0 .62-.31.93-.93.93h-15.78c-.62 0-.93-.31-.93-.93l.23-24.49v-12.3c0-3.25-.85-5.84-2.55-7.78-1.7-1.93-3.87-2.9-6.5-2.9-2.09 0-4.13.66-6.12 1.97-1.99 1.32-3.64 3.35-4.93 6.09-1.3 2.75-1.94 6.25-1.94 10.5v4.41l.23 24.49ZM203.67 82.74c-6.38 0-11.85-1.28-16.39-3.83-4.55-2.55-8.04-6.17-10.47-10.85-2.44-4.68-3.66-10.19-3.66-16.54s1.22-11.89 3.66-16.62c2.44-4.74 5.96-8.41 10.56-11.02 4.6-2.61 10.15-3.92 16.65-3.92 7.7 0 13.92 2 18.66 6.01 4.74 4 7.44 9.25 8.09 15.75.08.66-.23.99-.93.99h-14.27c-.58 0-.91-.29-.99-.87-.62-3.44-1.91-6-3.86-7.66-1.95-1.66-4.19-2.5-6.7-2.5-4.41.04-7.68 1.68-9.81 4.93-2.13 3.25-3.19 8.18-3.19 14.8s1.08 11.83 3.25 14.94c2.17 3.11 5.42 4.71 9.75 4.79 2.98.04 5.47-.96 7.49-2.99 2.01-2.03 3.21-5.02 3.6-8.96.04-.62.35-.93.93-.93h14.62c.7 0 1.01.29.93.87-.39 4.56-1.81 8.63-4.27 12.19-2.46 3.56-5.71 6.35-9.75 8.38-4.04 2.03-8.67 3.05-13.9 3.05ZM276.02 22.4c0-.62.29-.93.87-.93h15.67c.62 0 .93.31.93.93l-.23 29.01.23 28.9c0 .62-.31.93-.93.93h-15.55c-.58 0-.87-.31-.87-.93l.17-6.09a21.25 21.25 0 0 1-7.51 6.03c-2.96 1.43-6.33 2.15-10.12 2.15-5.65 0-10.4-1.36-14.25-4.09-3.85-2.73-6.75-6.42-8.7-11.08-1.95-4.66-2.93-9.89-2.93-15.7s1.05-11 3.16-15.72c2.11-4.72 5.13-8.48 9.05-11.29 3.93-2.8 8.6-4.21 14.01-4.21 7.35 0 13.09 2.53 17.23 7.6l-.23-5.51Zm-12.48 48.39c4.25 0 7.49-1.6 9.72-4.79 2.22-3.19 3.36-7.94 3.39-14.25.08-6.38-.99-11.28-3.19-14.68-2.2-3.4-5.4-5.12-9.57-5.16-2.94-.08-5.4.59-7.37 2-1.97 1.41-3.46 3.52-4.47 6.32-1.01 2.81-1.51 6.26-1.51 10.36 0 4.49.5 8.23 1.51 11.23s2.48 5.25 4.41 6.76c1.93 1.51 4.29 2.24 7.08 2.21ZM339.56.93c0-.62.31-.93.93-.93h15.55c.62 0 .93.31.93.93l-.12 39.69.12 39.69c0 .62-.31.93-.93.93h-15.67c-.66 0-.95-.31-.87-.93l.29-6.03c-2.09 2.55-4.6 4.55-7.54 5.98-2.94 1.43-6.31 2.15-10.1 2.15-5.65 0-10.4-1.36-14.25-4.09-3.85-2.73-6.75-6.42-8.7-11.08-1.95-4.66-2.93-9.89-2.93-15.7s1.05-11 3.16-15.72c2.11-4.72 5.13-8.48 9.05-11.29 3.93-2.8 8.6-4.21 14.01-4.21 7.19 0 12.88 2.44 17.06 7.31V.93Zm-12.53 69.98c4.25 0 7.49-1.6 9.72-4.79 2.22-3.19 3.36-7.94 3.39-14.25.08-6.46-.99-11.41-3.19-14.85-2.2-3.44-5.4-5.18-9.57-5.22-2.94-.08-5.4.6-7.37 2.03-1.97 1.43-3.46 3.57-4.47 6.41-1.01 2.84-1.51 6.33-1.51 10.47 0 4.49.5 8.23 1.51 11.23s2.48 5.25 4.41 6.76c1.93 1.51 4.29 2.24 7.08 2.21ZM390.5 82.74c-6.65 0-12.26-1.34-16.83-4.03-4.57-2.69-8.03-6.38-10.39-11.08-2.36-4.7-3.54-10.07-3.54-16.1 0-6.34 1.21-11.89 3.63-16.62 2.42-4.74 5.9-8.41 10.44-11.02 4.54-2.61 9.99-3.92 16.33-3.92 9.83 0 17.39 3.05 22.69 9.14 5.3 6.09 8.03 14.38 8.18 24.86 0 .62-.31.93-.93.93h-42.82c.35 5.65 1.63 9.77 3.86 12.36 2.22 2.59 5.43 3.89 9.6 3.89 2.98 0 5.47-.73 7.49-2.18 2.01-1.45 3.4-3.82 4.18-7.11.12-.54.44-.81.99-.81h14.91c.7 0 1 .21.93.64-.43 3.71-1.84 7.17-4.24 10.36s-5.67 5.77-9.81 7.75c-4.14 1.97-9.03 2.96-14.68 2.96Zm-12.77-38.88h24.49c-.23-2.13-.8-4.14-1.71-6.03-.91-1.9-2.21-3.43-3.89-4.61-1.68-1.18-3.8-1.77-6.35-1.77-3.52 0-6.3 1.04-8.36 3.1-2.05 2.07-3.44 5.17-4.18 9.31ZM441.56 80.31c0 .62-.31.93-.93.93h-15.32c-.62 0-.93-.31-.93-.93l.35-39.69-.35-39.69c0-.62.31-.93.93-.93h15.32c.62 0 .93.31.93.93l-.35 39.69.35 39.69ZM464.07 14.74c0 .62-.31.93-.93.93h-15.78c-.62 0-.93-.31-.93-.93V.93c0-.62.31-.93.93-.93h15.78c.62 0 .93.31.93.93v13.81Zm0 65.57c0 .62-.31.93-.93.93h-15.78c-.62 0-.93-.31-.93-.93l.23-28.9-.23-29.01c0-.62.31-.93.93-.93h15.78c.62 0 .93.31.93.93l-.23 29.01.23 28.9ZM497.73 82.74c-6.38 0-11.85-1.28-16.39-3.83-4.55-2.55-8.04-6.17-10.47-10.85-2.44-4.68-3.65-10.19-3.65-16.54s1.22-11.89 3.65-16.62c2.44-4.74 5.96-8.41 10.56-11.02 4.6-2.61 10.15-3.92 16.65-3.92 7.7 0 13.92 2 18.66 6.01 4.74 4 7.44 9.25 8.09 15.75.08.66-.23.99-.93.99h-14.27c-.58 0-.91-.29-.99-.87-.62-3.44-1.91-6-3.86-7.66-1.95-1.66-4.19-2.5-6.7-2.5-4.41.04-7.68 1.68-9.81 4.93-2.13 3.25-3.19 8.18-3.19 14.8s1.08 11.83 3.25 14.94c2.17 3.11 5.42 4.71 9.75 4.79 2.98.04 5.47-.96 7.49-2.99 2.01-2.03 3.21-5.02 3.6-8.96.04-.62.35-.93.93-.93h14.62c.7 0 1 .29.93.87-.39 4.56-1.81 8.63-4.26 12.19-2.46 3.56-5.71 6.35-9.75 8.38s-8.67 3.05-13.9 3.05ZM570.08 22.4c0-.62.29-.93.87-.93h15.67c.62 0 .93.31.93.93l-.23 29.01.23 28.9c0 .62-.31.93-.93.93h-15.55c-.58 0-.87-.31-.87-.93l.17-6.09a21.25 21.25 0 0 1-7.51 6.03c-2.96 1.43-6.33 2.15-10.12 2.15-5.65 0-10.4-1.36-14.25-4.09-3.85-2.73-6.75-6.42-8.7-11.08-1.96-4.66-2.93-9.89-2.93-15.7s1.05-11 3.16-15.72c2.11-4.72 5.13-8.48 9.05-11.29 3.93-2.8 8.6-4.21 14.01-4.21 7.35 0 13.09 2.53 17.23 7.6l-.23-5.51Zm-12.47 48.39c4.25 0 7.49-1.6 9.72-4.79s3.36-7.94 3.39-14.25c.08-6.38-.99-11.28-3.19-14.68-2.21-3.4-5.4-5.12-9.57-5.16-2.94-.08-5.4.59-7.37 2-1.97 1.41-3.46 3.52-4.47 6.32-1.01 2.81-1.51 6.26-1.51 10.36 0 4.49.5 8.23 1.51 11.23 1 3 2.47 5.25 4.41 6.76 1.93 1.51 4.29 2.24 7.08 2.21Z"/>
    </g>
</svg>
